<svg xmlns="http://www.w3.org/2000/svg" width="64" height="64" viewBox="0 0 256 256"><path fill="#51575b" d="m162.142 5.858 60 60-60 60-60-60z"/><path fill="#2a2d2f" d="M228 246a10 10 0 0 1-10 10H38a10 10 0 0 1-10-10V10A10 10 0 0 1 38 0h110a20 20 0 0 1 20 20v30a10 10 0 0 0 10 10h30a20 20 0 0 1 20 20z"/><path fill="#e15501" d="m100.674 71.288 20.258-67.677h4.217l-4.41 67.677zm17.787 34.74-9.285 142.682H47.499l42.76-142.657zm36.865-34.74L135.068 3.611h-4.251l4.41 67.677zm-17.821 34.74 9.32 142.682h61.642l-42.726-142.657zm42.827-17.358v17.358h12.39V88.67h15.281v-8.703H47.997v8.703h15.282v17.358h12.355V88.67z"/></svg>