<?xml version="1.0" encoding="UTF-8" standalone="no"?>
<svg
   width="64"
   height="64"
   viewBox="0 0 256 256"
   version="1.1"
   xmlns="http://www.w3.org/2000/svg">
  <path
     fill="#51575b"
     d="m 162.142135624,5.857864376 l 60,60 l -60,60 l -60,-60 z" />
  <path
     fill="#2a2d2f"
     d="m 228,246 a 10,10 0 0 1 -10,10 h -180 a 10,10 0 0 1 -10,-10 v -236 a 10,10 0 0 1 10,-10 h 110 a 20,20 0 0 1 20,20 v 30 a 10,10 0 0 0 10,10 h 30 a 20,20 0 0 1 20,20 z" />
  <path
     fill="#e15501"
     d="m 100.67439,71.28798 20.25806,-67.67743 h 4.21693 l -4.41091,67.67743 h -20.06408 m 17.78695,34.74018 -9.28566,142.68151 h -61.67665 l 42.75954,-142.65692 28.20277,-0.0246 m 36.86429,-34.74018 -20.25806,-67.67743 h -4.25067 l 4.41091,67.67743 h 20.09782 m -17.82068,34.74018 9.31939,142.68151 h 61.64291 l -42.7258,-142.65692 -28.2365,-0.0246 m 42.82701,-17.35779 v 17.35779 h 12.38931 v -17.35779 h 15.28213 v -8.70351 h -160.00678 v 8.70351 h 15.28213 v 17.35779 h 12.35557 v -17.35779 h 104.69764" />
</svg>
