<svg xmlns="http://www.w3.org/2000/svg" xml:space="preserve" width="40" height="40" viewBox="0 0 200 300"><path d="M136.571 120.592c-8.823 0-15.972 7.149-15.972 15.972v207.657c0 8.823 7.149 15.98 15.972 15.98h127.657c8.823 0 15.971-7.157 15.971-15.98V136.564c0-8.823-7.148-15.972-15.971-15.972z" style="fill:#0071b3;fill-opacity:1;fill-rule:evenodd;stroke:none;stroke-width:.499175" transform="matrix(1.25 0 0 -1.25 -150.5 450.492)"/><path d="M136.571 130.576h127.657a5.99 5.99 0 0 1 5.99 5.99v207.656a5.99 5.99 0 0 1-5.99 5.99H136.57a5.99 5.99 0 0 1-5.99-5.99V136.566a5.99 5.99 0 0 1 5.99-5.99m0-5.99c-6.62 0-11.98 5.36-11.98 11.98v207.656c0 6.611 5.36 11.98 11.98 11.98h127.657c6.62 0 11.98-5.369 11.98-11.98V136.566c0-6.62-5.36-11.98-11.98-11.98z" style="fill:#fff;fill-opacity:1;fill-rule:evenodd;stroke:none;stroke-width:.499175" transform="matrix(1.25 0 0 -1.25 -150.5 450.492)"/><path d="M136.571 360.394c-8.933 0-16.17-7.24-16.17-16.172V136.564c0-8.932 7.237-16.17 16.17-16.17H264.23c8.932 0 16.17 7.238 16.17 16.17v207.658c0 8.931-7.238 16.172-16.17 16.172zm0-.194h127.657c8.823 0 15.971-7.156 15.971-15.979V136.564c0-8.823-7.148-15.972-15.971-15.972H136.57c-8.823 0-15.972 7.149-15.972 15.972v207.657c0 8.823 7.149 15.98 15.972 15.98" style="fill:#000;fill-opacity:1;fill-rule:evenodd;stroke:none;stroke-width:.499175" transform="matrix(1.25 0 0 -1.25 -150.5 450.492)"/><path d="m186.157 342.931-8.033-60.794h17.09l1.31 60.794zm17.09 0 1.311-60.7h16.16l-7.005 60.7zm-67.903-66.49v-15.69h8.406l-4.576-37.915h21.483l-3.455 38.383h87.705l-4.39-38.757-.374-.464h21.856l-4.86 38.753h8.316v15.69zm40.07-23.162-14.663-116.075 31.57.094 2.056 115.981zm31.48-.092 3.08-115.983h30.916l-15.038 115.983z" style="fill:#fff;fill-opacity:1;stroke-width:2.33643" transform="matrix(1.25 0 0 -1.25 -150.5 450.492)"/></svg>
