<svg xmlns="http://www.w3.org/2000/svg" xml:space="preserve" width="40" height="40" viewBox="0 0 300 300"><path d="M136.571 120.592c-8.823 0-15.972 7.149-15.972 15.972v207.657c0 8.823 7.149 15.98 15.972 15.98h207.657c8.823 0 15.971-7.157 15.971-15.98V136.564c0-8.823-7.148-15.972-15.971-15.972z" style="fill:#0071b3;fill-opacity:1;fill-rule:evenodd;stroke:none;stroke-width:.499175" transform="matrix(1.25 0 0 -1.25 -150.5 450.492)"/><path d="M136.571 130.576h207.657a5.99 5.99 0 0 1 5.99 5.99v207.656a5.99 5.99 0 0 1-5.99 5.99H136.571a5.99 5.99 0 0 1-5.99-5.99V136.566a5.99 5.99 0 0 1 5.99-5.99m0-5.99c-6.62 0-11.98 5.36-11.98 11.98v207.656c0 6.611 5.36 11.98 11.98 11.98h207.657c6.62 0 11.98-5.369 11.98-11.98V136.566c0-6.62-5.36-11.98-11.98-11.98z" style="fill:#fff;fill-opacity:1;fill-rule:evenodd;stroke:none;stroke-width:.499175" transform="matrix(1.25 0 0 -1.25 -150.5 450.492)"/><path d="M136.571 360.394c-8.933 0-16.17-7.24-16.17-16.172V136.564c0-8.932 7.237-16.17 16.17-16.17H344.23c8.933 0 16.17 7.238 16.17 16.17v207.658c0 8.931-7.237 16.172-16.17 16.172zm0-.194h207.657c8.823 0 15.971-7.156 15.971-15.979V136.564c0-8.823-7.148-15.972-15.971-15.972H136.571c-8.823 0-15.972 7.149-15.972 15.972v207.657c0 8.823 7.149 15.98 15.972 15.98" style="fill:#000;fill-opacity:1;fill-rule:evenodd;stroke:none;stroke-width:.499175" transform="matrix(1.25 0 0 -1.25 -150.5 450.492)"/><path d="m188.333 302.13-21.314-48.92c-2.629-2.161-5.917-4.039-6.198-10.424-.94-13.144-.186-26.197 4.039-40.94h5.351v-20.56h-9.857v-2.91h159.439v2.91h-9.58v20.654h5.54c4.976 14.649 7.228 29.86 4.505 40.846-1.127 4.508-1.78 7.045-4.037 9.015-.75.753-1.502.658-2.064 1.596l-21.222 48.732zm2.44-4.32h98.688l19.718-44.6c-46.104 4.505-91.362 5.445-137.466.187zm-14.505-52.7c2.91 0 5.823-1.434 7.465-4.298 3.286-5.727-.847-12.862-7.42-12.862-6.665 0-10.795 7.135-7.51 12.862 1.643 2.864 4.554 4.297 7.465 4.297m127.7 0c2.91 0 5.823-1.434 7.465-4.298 3.286-5.727-.845-12.862-7.418-12.862-6.667 0-10.797 7.135-7.511 12.862 1.642 2.864 4.553 4.297 7.464 4.297M198.19 233.772h84.32v-3.194h-84.32zm-16.43-9.956h117.28v-3.19H181.76zm16.43-10.984h84.32v-3.191h-84.32zm-11.267-10.705h106.383v-21.406H186.924z" style="fill:#fff;fill-opacity:1;stroke-width:2.34338" transform="matrix(1.25 0 0 -1.25 -150.5 450.492)"/></svg>
