<svg xmlns="http://www.w3.org/2000/svg" xml:space="preserve" width="40" height="40" viewBox="0 0 300 200"><path d="M136.571 200.592c-8.823 0-15.972 7.15-15.972 15.972v127.657c0 8.823 7.149 15.98 15.972 15.98h207.657c8.823 0 15.971-7.157 15.971-15.98V216.564c0-8.823-7.148-15.972-15.971-15.972z" style="fill:#0071b3;fill-opacity:1;fill-rule:evenodd;stroke:none;stroke-width:.499175" transform="matrix(1.25 0 0 -1.25 -150.5 450.492)"/><path d="M136.571 210.576h207.657c3.309 0 5.99 2.68 5.99 5.99v127.656a5.99 5.99 0 0 1-5.99 5.99H136.571a5.99 5.99 0 0 1-5.99-5.99V216.566a5.99 5.99 0 0 1 5.99-5.99m0-5.99c-6.62 0-11.98 5.36-11.98 11.98v127.656c0 6.611 5.36 11.98 11.98 11.98h207.657c6.62 0 11.98-5.369 11.98-11.98V216.566c0-6.62-5.36-11.98-11.98-11.98z" style="fill:#fff;fill-opacity:1;fill-rule:evenodd;stroke:none;stroke-width:.499175" transform="matrix(1.25 0 0 -1.25 -150.5 450.492)"/><path d="M136.571 360.394c-8.933 0-16.17-7.24-16.17-16.172V216.564c0-8.932 7.237-16.17 16.17-16.17H344.23c8.933 0 16.17 7.238 16.17 16.17v127.658c0 8.931-7.237 16.172-16.17 16.172zm0-.194h207.657c8.823 0 15.971-7.156 15.971-15.979V216.564c0-8.823-7.148-15.972-15.971-15.972H136.571c-8.823 0-15.972 7.15-15.972 15.972v127.657c0 8.823 7.149 15.98 15.972 15.98" style="fill:#000;fill-opacity:1;fill-rule:evenodd;stroke:none;stroke-width:.499175" transform="matrix(1.25 0 0 -1.25 -150.5 450.492)"/><path d="m306.304 338.598-19.763-13.44v-34.91h39.802v34.814l-6.62 5.042v8.494h-5.963v-4.2zm-94.235-1.026-4.66-12.414-1.49-1.4v-2.8l1.864-11.483h2.144v-7h3.634v6.908h27.87v-6.72h3.354v6.812h2.239l1.49 10.736-.095 3.173-1.768 1.494-3.265 12.694zm.933-1.866h29.173l2.799-10.736-35.98.092zm93.302-1.308 15.75-11.203V294.54h-10.811v14.096h-10.627V294.54h-10.158v27.816zm-4.94-9.894v-10.642h9.972v10.642zm-89.667-3.08c.77 0 1.538-.373 1.958-1.12.84-1.493-.28-3.36-1.958-3.36s-2.795 1.867-1.957 3.36c.42.747 1.188 1.12 1.957 1.12m31.222 0c.769 0 1.538-.373 1.957-1.12.842-1.493-.278-3.36-1.954-3.36a2.18 2.18 0 0 0-1.367.478 2.34 2.34 0 0 0-.847 1.44 2.2 2.2 0 0 0 .255 1.442c.393.7 1.093 1.07 1.813 1.115a2 2 0 0 0 .143.005m-24.323-2.613h18.547v-1.4h-18.548zm-4.288-2.614h26.099v-1.4h-26.099zm-42.856-1.92c-1.009.023-1.803-.448-1.886-1.346l-2.422-13.628-.933-.935-4.754.188-12.024-12.508v-14.281c0-1.399 1.213-2.614 2.611-2.614q.263 0 .513.055c.5.107.957.367 1.315.726a2.8 2.8 0 0 1 .57.833 2.6 2.6 0 0 1 .212 1l.557 11.108 8.11 7.748-6.431-36.498-13.608-21.655 8.948-5.976c1.12 0 2.517 1.399 2.517 2.52s-.931 2.051-2.05 2.051l11.836 18.205 3.264 13.719 19.014-35.19 8.949 4.573a2.07 2.07 0 0 1 2.05 2.053 2.07 2.07 0 0 1-2.05 2.054l-3.356-.934-17.152 34.82 3.169 19.04 5.406-14.654 12.956-2.053c1.399 0 2.61 1.213 2.61 2.614 0 1.402-1.211 2.614-2.61 2.614l-8.201 1.494-6.806 18.295-5.685-.092-1.119.466.466 3.08 1.211.934c1.398 0 2.61 1.212 2.61 2.614l1.306 6.16c.28 1.4-1.12 2.895-2.518 2.895l-6.15.465a3 3 0 0 1-.445.04m47.234-.788h18.27v-1.4h-18.27zm36.725-9.52v-5.415c0-10.268 8.203-18.389 18.455-18.389h60.77v3.641H276.29c-9.23 0-16.779 7.562-16.779 16.803v3.36zm-2.33-35.1c-2.89 0-5.312-2.428-5.312-5.32 0-2.335 1.582-4.39 3.725-5.043l.283-2.892-1.212-1.214-13.796-1.68c-.838 0-1.584-.748-1.584-1.586 0-.84.746-1.587 1.584-1.587l14.357 1.495.837-10.83-8.387-4.012-6.06-9.986-.747.372c-.279.277-.651.373-1.025.373-.93 0-1.676-.746-1.676-1.681 0-.56.279-1.027.745-1.4l4.753-2.614 6.803 9.8 10.161 5.415 8.11-8.68h2.609l8.762 4.852.558-1.026v-.094c.279-.562.838-.934 1.585-.934a1.67 1.67 0 0 1 1.676 1.68c0 .374-.091.652-.186.934l-2.887 5.32-10.161-4.947-5.872 7.469-1.12 10.919 8.017.842 8.481 12.88c0 .84-.745 1.587-1.583 1.587-.84 0-.932-.746-1.583-1.587l-7.082-9.893-8.575-.56-.933 1.492v2.615c1.21 1.027 2.048 2.52 2.048 4.2 0 2.895-2.424 5.32-5.314 5.32m-27.774-26.054a7 7 0 0 1-6.06-3.534c-2.702-4.666.653-10.455 6.06-10.455 5.406 0 8.76 5.789 6.058 10.455-1.352 2.38-3.705 3.546-6.058 3.534" style="stroke-width:1.54873;fill:#fff;fill-opacity:1" transform="matrix(1.25 0 0 -1.25 -150.5 450.492)"/></svg>
