<svg xmlns="http://www.w3.org/2000/svg" xml:space="preserve" width="40" height="40" viewBox="0 0 200 300"><path d="M136.571 120.592c-8.823 0-15.972 7.149-15.972 15.972v207.657c0 8.823 7.149 15.98 15.972 15.98h127.657c8.823 0 15.971-7.157 15.971-15.98V136.564c0-8.823-7.148-15.972-15.971-15.972z" style="fill:#0071b3;fill-opacity:1;fill-rule:evenodd;stroke:none;stroke-width:.499175" transform="matrix(1.25 0 0 -1.25 -150.5 450.492)"/><path d="M136.571 130.576h127.657a5.99 5.99 0 0 1 5.99 5.99v207.656a5.99 5.99 0 0 1-5.99 5.99H136.57a5.99 5.99 0 0 1-5.99-5.99V136.566a5.99 5.99 0 0 1 5.99-5.99m0-5.99c-6.62 0-11.98 5.36-11.98 11.98v207.656c0 6.611 5.36 11.98 11.98 11.98h127.657c6.62 0 11.98-5.369 11.98-11.98V136.566c0-6.62-5.36-11.98-11.98-11.98z" style="fill:#fff;fill-opacity:1;fill-rule:evenodd;stroke:none;stroke-width:.499175" transform="matrix(1.25 0 0 -1.25 -150.5 450.492)"/><path d="M136.571 360.394c-8.933 0-16.17-7.24-16.17-16.172V136.564c0-8.932 7.237-16.17 16.17-16.17H264.23c8.932 0 16.17 7.238 16.17 16.17v207.658c0 8.931-7.238 16.172-16.17 16.172zm0-.194h127.657c8.823 0 15.971-7.156 15.971-15.979V136.564c0-8.823-7.148-15.972-15.971-15.972H136.57c-8.823 0-15.972 7.149-15.972 15.972v207.657c0 8.823 7.149 15.98 15.972 15.98" style="fill:#000;fill-opacity:1;fill-rule:evenodd;stroke:none;stroke-width:.499175" transform="matrix(1.25 0 0 -1.25 -150.5 450.492)"/><path d="M145.31 224.283v-23.105h22.362v23.105zm86.537-1.279v-23.106h22.363v23.106z" style="fill:#fff;fill-opacity:1;fill-rule:nonzero;stroke:none;stroke-width:1.00657;stroke-miterlimit:4;stroke-dasharray:none;stroke-opacity:1" transform="matrix(1.25 0 0 -1.25 -150.5 450.492)"/><path d="M203.833 150.65c-.352.11-.879.417-1.165.703-1.208 1.12-1.164.351-1.164 18.74v17.025h-41.082V170.64h-13.18v16.257h-2.769l-.9 1.582c-2.285 4.02-3.625 8.634-4.262 14.565-.33 2.988-.308 21.969.022 23.2.22.768.593 1.164 2.724 2.877.395.352.878.615 1.076.615.527 0 .681.33 2.417 4.943.922 2.417 2.306 6.064 3.075 8.129.791 2.043 3.076 8.062 5.075 13.379 2.021 5.294 3.8 9.952 3.976 10.369l.308.747h22.76l2.065 7.36c1.757 6.26 2.153 7.425 2.68 7.93.769.747 5.887 2.856 10.391 4.306l3.581 1.142-1.274.945c-2.285 1.67-3.889 4.174-4.504 7.052-.373 1.845-.373 2.636.022 4.548 1.165 5.536 5.756 9.336 11.292 9.336 2.307 0 4.086-.44 5.844-1.428 3.23-1.823 5.426-5.206 5.91-9.139.46-3.734-1.758-8.502-4.944-10.545l-1.076-.725 4.108-1.362c5.382-1.78 9.359-3.47 10.018-4.262.373-.44 1.12-2.702 2.592-7.886l2.065-7.272h7.909l2.24-5.009c1.231-2.746 4.966-11.072 8.283-18.498l6.041-13.51.725-.132c1.055-.176 2.966-1.67 3.471-2.724.418-.857.44-1.428.484-10.458.022-9.907-.11-12.434-.945-16.498-.769-3.845-2.526-8.392-4.35-11.226l-.68-1.033h-4.394V170.64h-13.181v16.477h-16.038v-11.863h6.151v-5.492h-12.742v17.355h-4.393l-.044-17.333-.066-17.356-.769-.79c-.417-.418-1.098-.88-1.538-.99-.879-.24-.988-.24-1.845 0m-2.329 44.267v.988h-27.9v-1.977h27.9zm10.94.044.066.944h-4.416v-1.998l2.154.065 2.13.066zm11.688-.044v.988h-5.053v-1.977h5.053zm-39.544 7.25v.988h-16.916v-1.978h16.916zm16.916 0v.988h-4.174v-1.978h4.174zm10.984 0v.988h-4.393v-1.978h4.393zm17.575 0v.988H219.08v-1.978h10.984zm-71.332 2.043c1.999.769 4.372 3.69 4.79 5.865.263 1.362-.11 3.186-.946 4.767-.878 1.67-1.537 2.307-3.163 3.186-2.768 1.472-5.69 1.252-8.216-.593-1.12-.813-1.692-1.494-2.33-2.856-.504-1.033-.592-1.494-.592-3.295-.022-2.461.33-3.318 2.13-5.229 1.758-1.867 3.362-2.504 5.844-2.35.791.043 1.912.285 2.483.505m87.084-.198c1.142.22 3.054 1.626 4.218 3.097 1.692 2.131 1.692 6.086.022 8.59-1.384 2.021-3.757 3.318-6.151 3.318-2.746.022-5.119-1.23-6.393-3.406-1.977-3.339-1.977-5.755-.044-8.436.857-1.186 2.9-2.878 3.69-3.031.242-.044.638-.132.88-.176.768-.176 2.811-.132 3.778.044m-55.295 5.734v.878h-16.916v-1.757h16.916zm10.984 0v.878h-4.174v-1.757h4.174zm10.984 0v.878h-4.393v-1.757h4.393zm11.644 0v.878h-5.053v-1.757h5.053zm-71.508 21.397c6.26.725 15.048 1.143 28.845 1.362l9.05.132v4.9c0 4.657.023 4.92.506 5.82 1.208 2.286 4.108 2.352 5.734.155.44-.593.461-.945.527-5.646l.066-5.031 2.658-.066c1.45-.044 2.68-.022 2.724.022s.088 2.878.088 6.261c0 3.405.11 6.898.22 7.799.132.9.176 1.692.11 1.736-.154.175-4.658-.374-6.898-.835-3.91-.813-10.567-3.383-11.073-4.284-.153-.286-1.362-.33-7.952-.33h-7.8v4.174h5.932v.572c0 .505 3.845 14.433 4.108 14.872.044.088-4.262.132-9.6.11l-9.71-.066-5.031-13.51c-2.768-7.426-5.47-14.676-6.02-16.126l-.966-2.592.813.11c.44.088 2.109.286 3.669.461m94.75 4.02c-1.23 2.527-4.722 9.755-7.776 16.104L234.04 262.8l-1.648.066-1.648.066.44-1.494c2.043-7.14 3.713-13.247 3.713-13.642 0-.462.065-.484 2.746-.484h2.768l-.066-2.043-.066-2.02-7.799-.067c-7.008-.044-7.799-.022-7.975.308-.461.835-6.722 3.251-10.698 4.152-2.175.483-7.184 1.142-7.338.966-.044-.043.066-1.23.22-2.614.153-1.384.285-4.965.307-7.975v-5.426h5.47l.066 5.36.066 5.361.55.593c1.67 1.78 4.283 1.56 5.426-.461.483-.813.505-1.077.505-5.932v-5.075l6.547-.131c8.897-.198 18.102-.813 21.903-1.45 2.284-.396 2.306-.747-.154 4.306m-58.897 12.918c10.632 4.306 23.243 4.152 33.546-.351 1.098-.484 2.13-.945 2.285-1.01.153-.067.263.043.263.24 0 .286.396.352 2.373.396l2.372.066-2.02 7.25c-1.121 3.976-2.088 7.47-2.176 7.733-.11.505-.153.505-3.91.505h-3.823l-.373-2.153-.373-2.13 1.23-4.043c.659-2.219 1.164-4.086 1.142-4.13-.044-.044-1.208.22-2.592.593-7.8 2.021-15.708 2.021-23.331-.022-.945-.264-1.757-.44-1.801-.373-.044.043.46 1.845 1.12 4.02l1.208 3.932-.373 2.153-.374 2.153h-7.6l-.243-.835c-.131-.44-1.098-3.932-2.174-7.733l-1.912-6.92 2.065-.066c1.538-.044 2.065-.132 2.153-.373.11-.286.22-.286.77 0 .35.197 1.493.68 2.548 1.098m3.58 19.377c0 .131-1.362 8.282-2.043 12.148-.044.286-3.449-11.687-3.449-12.148 0-.088 1.23-.154 2.746-.154s2.746.066 2.746.154m31.635 0c0 .131-3.031 11.16-3.36 12.236-.067.154-2.154-11.819-2.132-12.236 0-.088 1.23-.154 2.746-.154s2.746.066 2.746.154" style="fill:#fd0001;stroke:none;stroke-width:.0219688" transform="matrix(1.25 0 0 -1.25 -150.5 450.492)"/><path d="M204.997 309.923c-5.536 0-10.127-3.801-11.292-9.337-.395-1.912-.395-2.68 0-4.569.615-2.878 2.373-5.603 4.68-7.184l1.076-.77-4.086-1.338c-5.118-1.692-9.228-3.428-9.953-4.219-.461-.461-.922-1.824-2.153-6.195a2558 2558 0 0 0-4.745-16.717c-1.736-6.108-3.163-11.38-3.163-11.71v-.572h-5.931v-4.173h7.799c6.59 0 7.799.042 7.953.328.505.9 7.161 3.471 11.072 4.284 2.24.462 6.744 1.01 6.898.835.066-.044 0-.879-.11-1.846-.133-1.032-.22-8.413-.22-18.123 0-14.61-.044-16.433-.351-16.697-1.01-.835-.967.264-.967-30.184 0-31.042-.067-29.24 1.164-30.383a3.4 3.4 0 0 1 1.165-.703c.857-.242.967-.242 1.846 0 .439.11 1.12.571 1.537.989l.769.79.065 29.13.044 29.153-.548.835-.55.836v15.53c-.022 11.27-.11 16.257-.308 18.08-.154 1.385-.263 2.572-.219 2.616.154.176 5.163-.484 7.338-.967 3.976-.9 10.237-3.317 10.698-4.152.176-.33.967-.351 7.975-.307l7.799.065.065 2.02.067 2.044h-2.768c-2.703 0-2.747 0-2.747.483 0 .461-1.976 7.536-7.578 27.286-1.384 4.79-2.088 6.942-2.461 7.381-.66.791-4.635 2.483-10.018 4.263l-4.109 1.36 1.077.726c3.185 2.043 5.405 6.81 4.943 10.545-.483 3.932-2.68 7.316-5.909 9.139-1.757.989-3.537 1.428-5.844 1.428m15.246-30.251c.022.088 2.088-7.117 4.548-16.036l4.525-16.214-2.372-.066c-1.977-.044-2.373-.11-2.373-.395 0-.198-.109-.308-.263-.242-.153.065-1.187.527-2.286 1.01-10.303 4.504-22.912 4.658-33.545.352-1.054-.417-2.197-.9-2.548-1.098-.55-.286-.66-.286-.77 0-.087.241-.614.33-2.152.373l-2.066.066 4.438 15.972c2.438 8.765 4.46 16.058 4.504 16.19.066.154.9-4.525 1.911-10.369l1.802-10.632-1.188-3.933c-.659-2.153-1.164-3.955-1.12-3.999.044-.066.857.11 1.802.374 7.623 2.043 15.532 2.043 23.33.022 1.385-.374 2.55-.636 2.593-.593.022.044-.483 1.89-1.142 4.13l-1.208 4.02 1.756 10.457c.967 5.734 1.802 10.5 1.824 10.61m-26.508-34.557c-1.08-.027-2.105-.615-2.71-1.757l-.506-.944V206.45h-5.931v-5.272h12.742l-.044 20.848c-.065 20.783-.066 20.871-.528 21.486-.812 1.099-1.944 1.63-3.023 1.603m21.983 0c-1.274 0-2.614-.856-3.032-1.932-.175-.44-.22-12.743-.198-61.294v-12.127h12.742v5.492h-6.151v67.335l-.505.856a3.33 3.33 0 0 1-2.856 1.67" style="fill:#fff;stroke:none;stroke-width:.0219688" transform="matrix(1.25 0 0 -1.25 -150.5 450.492)"/></svg>
