<svg xmlns="http://www.w3.org/2000/svg" xml:space="preserve" width="40" height="40" viewBox="0 0 600.995 600.995"><path d="M450.375 225.375c0 124.266-100.734 225-225 225s-225-100.734-225-225 100.734-225 225-225 225 100.734 225 225" style="fill:#fff;fill-opacity:1;fill-rule:nonzero;stroke:none" transform="scale(1.33333)"/><path d="M225.375 0C100.906 0 0 100.906 0 225.375 0 349.84 100.906 450.746 225.375 450.746c124.465 0 225.371-100.906 225.371-225.371C450.746 100.906 349.84 0 225.375 0m0 .375c124.266 0 225 100.734 225 225s-100.734 225-225 225-225-100.734-225-225 100.734-225 225-225" style="fill:#000;fill-opacity:1;fill-rule:nonzero;stroke:none" transform="scale(1.33333)"/><path d="M225.375 7.875c-119.766 0-217.5 97.734-217.5 217.5 0 119.762 97.734 217.5 217.5 217.5 119.762 0 217.5-97.738 217.5-217.5 0-119.766-97.738-217.5-217.5-217.5m0 60.301c87.176 0 157.199 70.019 157.199 157.199 0 87.176-70.023 157.199-157.199 157.199-87.18 0-157.199-70.023-157.199-157.199 0-87.18 70.019-157.199 157.199-157.199" style="fill:#c1121c;fill-opacity:1;fill-rule:nonzero;stroke:none" transform="scale(1.33333)"/><path d="M22.344 22.766v.023h-.024Z" style="fill:#000;fill-opacity:1;fill-rule:nonzero;stroke:none" transform="scale(1.33333)"/><path d="M22.32 22.766h.023v.023h-.023Z" style="fill:#000;fill-opacity:1;fill-rule:nonzero;stroke:none" transform="scale(1.33333)"/><path d="M22.32 22.789v-.023l.024.023zm.024 0-.024-.023v.023z" style="fill:#000;fill-opacity:1;fill-rule:nonzero;stroke:none" transform="scale(1.33333)"/><path d="M22.367 22.789h-.047.024v-.023Z" style="fill:#000;fill-opacity:1;fill-rule:nonzero;stroke:none" transform="scale(1.33333)"/><path d="M22.32 22.789v-.023zl.024-.023z" style="fill:#000;fill-opacity:1;fill-rule:nonzero;stroke:none" transform="scale(1.33333)"/><path d="M22.32 22.766h.023v.023h-.023Zm.047 0v.046h-.047Z" style="fill:#000;fill-opacity:1;fill-rule:nonzero;stroke:none" transform="scale(1.33333)"/><path d="M22.32 22.766h.047v.047h-.047Z" style="fill:#000;fill-opacity:1;fill-rule:nonzero;stroke:none" transform="scale(1.33333)"/><path d="M22.32 22.812v-.046l.047.046zm.047 0-.047-.046v.046z" style="fill:#000;fill-opacity:1;fill-rule:nonzero;stroke:none" transform="scale(1.33333)"/><path d="M22.367 22.812h-.047.024v-.046Z" style="fill:#000;fill-opacity:1;fill-rule:nonzero;stroke:none" transform="scale(1.33333)"/><path d="M22.32 22.812v-.046zl.047-.046z" style="fill:#000;fill-opacity:1;fill-rule:nonzero;stroke:none" transform="scale(1.33333)"/><path d="M22.32 22.766h.047v.047h-.047Z" style="fill:#000;fill-opacity:1;fill-rule:nonzero;stroke:none" transform="scale(1.33333)"/><path d="M22.367 22.766v.046h-.047Z" style="fill:#000;fill-opacity:1;fill-rule:nonzero;stroke:none" transform="scale(1.33333)"/><path d="M22.32 22.766h.047v.047h-.047Z" style="fill:#000;fill-opacity:1;fill-rule:nonzero;stroke:none" transform="scale(1.33333)"/><path d="M22.32 22.812v-.046l.047.046zm.047 0-.047-.046v.046z" style="fill:#000;fill-opacity:1;fill-rule:nonzero;stroke:none" transform="scale(1.33333)"/><path d="M22.367 22.812h-.047.024v-.046Z" style="fill:#000;fill-opacity:1;fill-rule:nonzero;stroke:none" transform="scale(1.33333)"/><path d="M22.32 22.812v-.046zl.047-.046z" style="fill:#000;fill-opacity:1;fill-rule:nonzero;stroke:none" transform="scale(1.33333)"/><path d="M22.32 22.766h.047v.047h-.047Z" style="fill:#000;fill-opacity:1;fill-rule:nonzero;stroke:none" transform="scale(1.33333)"/><path d="M22.367 22.766v.046h-.047Z" style="fill:#000;fill-opacity:1;fill-rule:nonzero;stroke:none" transform="scale(1.33333)"/><path d="M22.32 22.766h.047v.047h-.047Z" style="fill:#000;fill-opacity:1;fill-rule:nonzero;stroke:none" transform="scale(1.33333)"/><path d="M22.32 22.812v-.046l.047.046zm.047 0-.047-.046v.046z" style="fill:#000;fill-opacity:1;fill-rule:nonzero;stroke:none" transform="scale(1.33333)"/><path d="M22.367 22.812h-.047.024v-.046Z" style="fill:#000;fill-opacity:1;fill-rule:nonzero;stroke:none" transform="scale(1.33333)"/><path d="M22.32 22.812v-.046zl.047-.046z" style="fill:#000;fill-opacity:1;fill-rule:nonzero;stroke:none" transform="scale(1.33333)"/><path d="M22.32 22.766h.047v.047h-.047Zm129.895 297.07V159.945l-26.844 19.61v-28.641l26.844-19.5h27.109v188.422zm69.75-87.45v-99.574h99.68v26.532h-74.782v41.933c20.883-16.449 51.196-12.96 67.707 7.856a48.25 48.25 0 0 1 10.395 29.89v28.231c0 29.277-23.852 53.058-53.16 53.058-27.434 0-50.407-20.855-52.942-48.129h26.821c2.754 14.446 16.687 23.868 31.058 21.075 12.535-2.356 21.621-13.309 21.621-26.004v-23.258c0-14.703-11.883-26.53-26.558-26.53-10.176 0-19.485 5.756-23.895 14.92z" style="fill:#000;fill-opacity:1;fill-rule:nonzero;stroke:none" transform="scale(1.33333)"/></svg>