<svg xmlns="http://www.w3.org/2000/svg" xml:space="preserve" width="40" height="40" viewBox="0 0 421.001 232.002"><path d="M22.652 185.204c-12.273 0-22.254-9.954-22.254-22.184V22.575C.398 10.348 10.379.403 22.652.403h291.496c12.274 0 22.25 9.945 22.25 22.172V163.02c0 12.23-9.976 22.184-22.25 22.184z" style="fill:#fff;fill-opacity:1;fill-rule:nonzero;stroke:none" transform="matrix(1.25 0 0 -1.25 0 232.003)"/><path d="M22.652 185.602C10.164 185.602 0 175.465 0 163.02V22.575C0 10.129 10.164 0 22.652 0h291.496c12.489 0 22.653 10.129 22.653 22.575V163.02c0 12.445-10.164 22.582-22.653 22.582zm0-.398h291.496c12.274 0 22.25-9.954 22.25-22.184V22.575c0-12.227-9.976-22.172-22.25-22.172H22.652C10.379.403.398 10.348.398 22.575V163.02c0 12.23 9.981 22.184 22.254 22.184" style="fill:#000;fill-opacity:1;fill-rule:nonzero;stroke:none" transform="matrix(1.25 0 0 -1.25 0 232.003)"/><path d="M22.645 14.118h291.496c4.644 0 8.41 3.75 8.41 8.379v140.605c0 4.629-3.766 8.379-8.41 8.379H22.645c-4.649 0-8.411-3.75-8.411-8.379V22.497c0-4.629 3.762-8.379 8.411-8.379m.398-7.981c-9.289 0-16.816 7.5-16.816 16.758V162.7c0 9.257 7.527 16.757 16.816 16.757H313.82c9.289 0 16.817-7.5 16.817-16.757V22.895c0-9.258-7.528-16.758-16.817-16.758" style="fill:#000;fill-opacity:1;fill-rule:nonzero;stroke:none" transform="matrix(1.25 0 0 -1.25 0 232.003)"/><g style="font-weight:700;font-size:52.2667px;line-height:125%;-inkscape-font-specification:&quot;sans-serif, Bold&quot;;letter-spacing:0;word-spacing:0;stroke-width:.8px"><path d="M65.252-122.907q0 4.339-3.084 6.69-3.031 2.3-9.094 2.3-2.98 0-5.122-.418-2.143-.366-4.286-1.254v-6.43q2.3 1.046 4.965 1.726t4.704.68q2.3 0 3.24-.68.994-.68.994-1.777 0-.732-.418-1.307-.366-.575-1.673-1.307-1.306-.731-4.076-1.881-2.666-1.15-4.39-2.248-1.726-1.15-2.562-2.718-.836-1.62-.836-4.024 0-3.972 3.084-5.959t8.205-1.986q2.666 0 5.07.523t4.966 1.725l-2.352 5.592q-2.091-.888-3.973-1.463-1.881-.627-3.815-.627-3.45 0-3.45 1.881 0 .68.418 1.255.47.522 1.725 1.15 1.307.627 3.816 1.672 2.456.993 4.233 2.09 1.777 1.046 2.718 2.666.993 1.568.993 4.13m18.084 2.77q1.307 0 2.51-.262 1.201-.261 2.404-.627v5.802q-1.255.522-3.136.888-1.83.418-4.025.418-2.561 0-4.6-.836-1.986-.836-3.188-2.875-1.15-2.09-1.15-5.749v-13.746h-3.71v-3.293l4.285-2.613 2.248-6.011h4.965v6.063h7.997v5.854h-7.997v13.746q0 1.62.94 2.457.942.784 2.457.784m22.371-23.416q5.749 0 8.78 2.509 3.084 2.456 3.084 7.579v19.025h-5.436l-1.515-3.868h-.21q-1.829 2.3-3.867 3.345t-5.593 1.045q-3.815 0-6.324-2.195-2.509-2.247-2.509-6.847 0-4.547 3.189-6.69 3.188-2.195 9.564-2.404l4.966-.157v-1.255q0-2.247-1.202-3.292-1.15-1.046-3.241-1.046-2.09 0-4.077.628-1.986.574-3.972 1.463l-2.561-5.279q2.3-1.202 5.07-1.882 2.822-.679 5.854-.679m1.097 15.994q-3.763.104-5.226 1.359t-1.464 3.292q0 1.777 1.045 2.561 1.046.732 2.718.732 2.51 0 4.234-1.463 1.725-1.516 1.725-4.234v-2.352zm34.653-15.942q4.809 0 7.788 3.763 2.979 3.711 2.979 10.977 0 7.265-3.084 11.08-3.083 3.763-7.892 3.763-3.084 0-4.913-1.097-1.83-1.15-2.98-2.561h-.417q.418 2.195.418 4.18v11.5h-7.788v-41.082h6.324l1.098 3.71h.366q1.15-1.724 3.083-2.978t5.018-1.255m-2.509 6.22q-3.031 0-4.286 1.882-1.202 1.881-1.306 5.749v.836q0 4.13 1.202 6.377 1.254 2.195 4.495 2.195 2.665 0 3.92-2.195 1.306-2.248 1.306-6.429 0-8.415-5.33-8.415m25.453 22.84-10.871-28.537h8.153l5.488 16.255q.47 1.463.732 3.031.314 1.568.366 2.823h.209q.157-2.823 1.15-5.854l5.488-16.255h8.153l-10.87 28.538zm48.869-14.32q0 7.108-3.763 10.976-3.71 3.867-10.14 3.867-3.972 0-7.108-1.725-3.083-1.724-4.86-5.017-1.778-3.345-1.778-8.102 0-7.108 3.711-10.923t10.192-3.816q4.025 0 7.109 1.725t4.86 5.018q1.777 3.24 1.777 7.996m-19.704 0q0 4.233 1.359 6.428 1.411 2.143 4.547 2.143 3.084 0 4.443-2.143 1.41-2.195 1.41-6.429 0-4.233-1.41-6.324-1.36-2.143-4.495-2.143-3.084 0-4.495 2.143-1.36 2.09-1.36 6.324M231.46-143.5q5.906 0 9.356 3.398 3.45 3.345 3.45 9.564v3.764h-18.398q.104 3.292 1.934 5.174 1.881 1.882 5.174 1.882 2.77 0 5.018-.523 2.247-.575 4.651-1.725v6.01q-2.09 1.046-4.442 1.517-2.3.522-5.593.522-4.286 0-7.579-1.568-3.292-1.62-5.174-4.86t-1.882-8.154q0-5.018 1.673-8.31 1.725-3.346 4.756-5.018 3.032-1.673 7.056-1.673m.053 5.54q-2.248 0-3.764 1.464-1.463 1.464-1.724 4.547h10.923q-.052-2.613-1.359-4.286-1.306-1.724-4.076-1.724m31.098 17.823q1.307 0 2.509-.262 1.202-.261 2.404-.627v5.802q-1.254.522-3.136.888-1.83.418-4.024.418-2.561 0-4.6-.836-1.986-.836-3.188-2.875-1.15-2.09-1.15-5.749v-13.746h-3.71v-3.293l4.285-2.613 2.248-6.011h4.965v6.063h7.997v5.854h-7.997v13.746q0 1.62.94 2.457.941.784 2.457.784m30.576-2.771q0 4.339-3.084 6.69-3.031 2.3-9.094 2.3-2.98 0-5.122-.418-2.143-.366-4.286-1.254v-6.43q2.3 1.046 4.965 1.726t4.704.68q2.3 0 3.24-.68.994-.68.994-1.777 0-.732-.418-1.307-.366-.575-1.673-1.307-1.306-.731-4.076-1.881-2.666-1.15-4.39-2.248-1.726-1.15-2.562-2.718-.836-1.62-.836-4.024 0-3.972 3.084-5.959t8.205-1.986q2.666 0 5.07.523t4.966 1.725l-2.352 5.592q-2.091-.888-3.973-1.463-1.881-.627-3.815-.627-3.45 0-3.45 1.881 0 .68.418 1.255.47.522 1.725 1.15 1.307.627 3.816 1.672 2.456.993 4.233 2.09 1.777 1.046 2.718 2.666.993 1.568.993 4.13m-181.914 44.74q.575 0 1.359.052t1.254.157l-.575 7.317q-.365-.104-1.097-.157-.68-.104-1.202-.104-1.986 0-3.816.731-1.83.68-2.979 2.248-1.098 1.568-1.098 4.286v14.53h-7.787v-28.538h5.906l1.15 4.809h.366q1.254-2.195 3.45-3.763 2.194-1.568 5.069-1.568m11.707-10.663q1.726 0 2.98.837 1.254.784 1.254 2.979 0 2.143-1.254 2.979t-2.98.836q-1.776 0-3.03-.836-1.203-.836-1.203-2.98 0-2.194 1.202-2.978 1.255-.837 3.032-.837m3.868 11.185v28.538h-7.787v-28.538zm7.84-7.369q0-2.195 1.202-2.98 1.254-.836 3.031-.836 1.725 0 2.98.837 1.254.784 1.254 2.979 0 2.143-1.255 2.979t-2.979.836q-1.777 0-3.031-.836-1.202-.836-1.202-2.98m-1.987 48.451q-1.306 0-2.717-.21-1.464-.156-2.405-.417v-6.115q.941.209 1.777.313.837.157 1.882.157 1.568 0 2.666-.889 1.097-.888 1.097-3.45v-30.47h7.788v31.62q0 2.614-.993 4.757t-3.24 3.397q-2.196 1.307-5.855 1.307m27.284-12.02q-4.757 0-7.788-3.711-2.98-3.764-2.98-11.029 0-7.317 3.032-11.08t7.945-3.763q3.083 0 5.07 1.202 1.986 1.202 3.136 2.979h.26q-.156-.836-.365-2.404-.209-1.62-.209-3.293v-9.147h7.788v39.723h-5.959l-1.515-3.711h-.314q-1.15 1.777-3.084 3.031-1.934 1.203-5.017 1.203m2.717-6.22q3.241 0 4.548-1.882 1.306-1.934 1.359-5.75v-.835q0-4.182-1.307-6.377-1.254-2.195-4.704-2.195-2.561 0-4.025 2.247-1.463 2.196-1.463 6.377t1.463 6.324q1.464 2.09 4.13 2.09m33.084-23.362q5.906 0 9.356 3.397 3.45 3.345 3.45 9.565v3.763h-18.398q.104 3.293 1.934 5.174 1.881 1.882 5.174 1.882 2.77 0 5.018-.523 2.247-.575 4.651-1.724v6.01q-2.09 1.046-4.442 1.516-2.3.523-5.593.523-4.286 0-7.579-1.568-3.292-1.62-5.174-4.861t-1.882-8.154q0-5.017 1.673-8.31 1.725-3.345 4.756-5.018t7.056-1.672m.053 5.54q-2.248 0-3.764 1.463-1.463 1.464-1.724 4.548h10.923q-.052-2.614-1.359-4.286-1.306-1.725-4.076-1.725m35.279-5.54q4.6 0 7.37 2.508 2.77 2.457 2.77 7.945v18.607h-7.787v-16.673q0-3.084-1.098-4.6-1.098-1.568-3.502-1.568-3.554 0-4.86 2.457-1.307 2.404-1.307 6.951v13.433h-7.788v-28.538h5.958l1.046 3.659h.418q1.359-2.195 3.71-3.188 2.405-.993 5.07-.993" aria-label="stapvoets rijden" style="text-align:center;text-anchor:middle" transform="translate(0 232.003)scale(1.25)"/></g></svg>