<svg xmlns="http://www.w3.org/2000/svg" xml:space="preserve" width="73" height="40" viewBox="0 0 421.001 232.002"><path d="M22.652 185.204c-12.273 0-22.254-9.954-22.254-22.184V22.575C.398 10.348 10.379.403 22.652.403h291.496c12.274 0 22.25 9.945 22.25 22.172V163.02c0 12.23-9.976 22.184-22.25 22.184z" style="fill:#fff;fill-opacity:1;fill-rule:nonzero;stroke:none" transform="matrix(1.25 0 0 -1.25 0 232.003)"/><path d="M22.652 185.602C10.164 185.602 0 175.465 0 163.02V22.575C0 10.129 10.164 0 22.652 0h291.496c12.489 0 22.653 10.129 22.653 22.575V163.02c0 12.445-10.164 22.582-22.653 22.582zm0-.398h291.496c12.274 0 22.25-9.954 22.25-22.184V22.575c0-12.227-9.976-22.172-22.25-22.172H22.652C10.379.403.398 10.348.398 22.575V163.02c0 12.23 9.981 22.184 22.254 22.184" style="fill:#000;fill-opacity:1;fill-rule:nonzero;stroke:none" transform="matrix(1.25 0 0 -1.25 0 232.003)"/><path d="M-17.881 262.935c-.726-3.63-.726-56.43-.726-56.43l34.152-40.936 34.811 40.936.726 26.86 11.774.158.567-69.122 6.85-10.163-.158-57.54 20.167-66.594 20.326 68.238v55.896l7.26 13.067v24.681l19.6-13.067 49.362 28.312v40.652h9.438v-95.097h7.735v-40.652l6.522.05.284-41.053h35.139v46.81h7.067v74.045h12.216v40.845h12.408v-67.704l29.128-25.816 26.7 27.268v38.474l27.586-26.86 27.585 29.038.568 55.579z" style="fill:#000;fill-opacity:1;fill-rule:evenodd;stroke:none;stroke-width:1px;stroke-linecap:butt;stroke-linejoin:miter;stroke-opacity:1" transform="matrix(.6 0 0 .6 99.321 28.09)"/><path d="M-57.073 311.983 396.422 84.436l-18.334-37.854L-77.803 272.93z" style="fill:#c00;fill-opacity:1;fill-rule:evenodd;stroke:none;stroke-width:1px;stroke-linecap:butt;stroke-linejoin:miter;stroke-opacity:1" transform="matrix(.6 0 0 .6 99.321 28.09)"/></svg>
