<svg xmlns="http://www.w3.org/2000/svg" xml:space="preserve" width="67" height="40" viewBox="0 0 170.576 102.163"><path stroke-miterlimit="3.863" d="M170.476 94.468V7.655c0-4.198-3.325-7.555-7.534-7.555H7.636C3.427.1.1 3.538.1 7.735v86.772a7.535 7.535 0 0 0 7.576 7.556h155.305c4.209 0 7.495-3.398 7.495-7.595z" style="fill:#fff;stroke:#000;stroke-width:.2;stroke-miterlimit:3.863;stroke-opacity:1;fill-opacity:1"/><path d="M10.645 68.16c0-15.003.135-27.282.299-27.286s3.834 1.273 8.156 2.84l7.858 2.848v5.323c0 3.611.141 5.324.438 5.324.241 0 5.792-1.463 12.335-3.25l11.896-3.249-.054-6.01c-.029-3.305-.164-9.593-.299-13.974l-.244-7.965 6.473-8.661c3.56-4.764 6.553-8.662 6.652-8.662s3.318 3.757 7.154 8.349l6.976 8.349v40.04l6.126-6.122 6.126-6.122 5.219 7.819 5.218 7.819h8.346v2.789h8.356v15.929h4.775l.012-9.259.012-9.259L135.282 59c7.044-3.724 15.633-8.26 19.087-10.08l6.279-3.309v49.826h-150V68.16z" style="fill:#000;fill-opacity:1"/><path d="M7.875 1.852c-3.159 0-5.678 2.564-5.678 5.73v87.041c0 3.165 2.519 5.73 5.678 5.73h154.906c3.158 0 5.68-2.564 5.68-5.73v-87c0-3.166-2.522-5.771-5.68-5.771zm-.04 1.683h154.946c2.2 0 3.96 1.764 3.96 3.969v87.2c0 2.203-1.68 3.927-3.88 3.927H7.795c-2.2 0-3.918-1.765-3.918-3.969V7.623c0-2.204 1.759-4.088 3.959-4.088" style="fill:#000;fill-opacity:1"/></svg>
